<svg width="331" height="90" viewBox="0 0 331 90" fill="none" xmlns="http://www.w3.org/2000/svg">
<path d="M35.904 71.232C25.408 71.232 16.8 67.904 10.08 61.248C3.35999 54.592 -6.19888e-06 46.064 -6.19888e-06 35.664C-6.19888e-06 25.168 3.40799 16.608 10.224 9.98401C17.072 3.32801 25.664 5.72205e-06 36 5.72205e-06C39.488 5.72205e-06 42.72 0.400005 45.696 1.2C48.672 1.96801 51.392 3.05601 53.856 4.46401C56.352 5.84001 58.432 7.32801 60.096 8.92801C61.792 10.496 62.64 11.28 62.64 11.28L51.888 23.184C51.888 23.184 51.376 22.656 50.352 21.6C49.36 20.512 48.176 19.536 46.8 18.672C45.424 17.808 43.872 17.12 42.144 16.608C40.416 16.096 38.464 15.84 36.288 15.84C30.848 15.84 26.288 17.664 22.608 21.312C18.928 24.96 17.088 29.744 17.088 35.664C17.088 41.456 18.88 46.192 22.464 49.872C26.08 53.552 30.656 55.392 36.192 55.392C38.464 55.392 40.528 55.12 42.384 54.576C44.272 54 45.952 53.216 47.424 52.224C48.928 51.232 50.16 50.176 51.12 49.056C52.08 47.936 52.56 47.376 52.56 47.376L63.84 58.416C63.84 58.416 62.992 59.344 61.296 61.2C59.632 63.056 57.504 64.768 54.912 66.336C52.352 67.872 49.472 69.072 46.272 69.936C43.104 70.8 39.648 71.232 35.904 71.232ZM67.893 69.984V1.24801H83.253V69.984H67.893ZM115.322 71.232C107.514 71.232 101.082 68.752 96.0262 63.792C91.0022 58.832 88.4902 52.544 88.4902 44.928C88.4902 37.312 91.0022 31.024 96.0262 26.064C101.05 21.072 107.37 18.576 114.986 18.576C122.506 18.576 128.602 20.912 133.274 25.584C137.978 30.256 140.33 36.192 140.33 43.392V48.432H96.0262V40.464H126.65C126.394 37.648 125.242 35.312 123.194 33.456C121.146 31.6 118.442 30.672 115.082 30.672C111.498 30.672 108.49 31.968 106.058 34.56C103.658 37.152 102.458 40.624 102.458 44.976C102.458 49.456 103.77 53.04 106.394 55.728C109.05 58.384 112.314 59.712 116.186 59.712C118.074 59.712 119.738 59.456 121.178 58.944C122.65 58.4 123.994 57.648 125.21 56.688C126.426 55.696 127.706 54.208 129.05 52.224L139.082 58.08C136.97 61.472 134.826 64.064 132.65 65.856C130.474 67.616 128.01 68.96 125.258 69.888C122.506 70.784 119.194 71.232 115.322 71.232ZM156.367 69.984L137.503 19.824H153.295L163.375 48.864L164.431 53.568H164.575L165.727 48.864L175.711 19.824H191.455L172.015 69.984H156.367ZM199.19 89.232C199.19 89.232 199.142 89.232 199.046 89.232C198.95 89.232 198.998 89.232 199.19 89.232L210.086 65.712L209.798 71.28L189.302 19.824H205.142L215.75 49.392L216.71 52.464H216.806L217.814 49.392L228.23 19.824C228.198 19.824 228.182 19.824 228.182 19.824C228.214 19.824 228.23 19.824 228.23 19.824H243.926L215.27 89.232C215.334 89.232 215.35 89.232 215.318 89.232C215.286 89.232 215.27 89.232 215.27 89.232H199.19ZM246.307 69.984V19.824H260.563V29.088L259.315 27.552H260.707C262.051 24.608 263.891 22.384 266.227 20.88C268.563 19.344 270.979 18.576 273.475 18.576C274.275 18.576 275.075 18.656 275.875 18.816C276.675 18.944 277.379 19.104 277.987 19.296C278.595 19.456 278.899 19.536 278.899 19.536V33.456C278.899 33.456 278.547 33.344 277.843 33.12C277.139 32.896 276.275 32.688 275.251 32.496C274.227 32.304 273.267 32.208 272.371 32.208C269.363 32.208 266.819 33.296 264.739 35.472C262.691 37.648 261.667 40.592 261.667 44.304V69.984H246.307ZM305.83 71.232C298.022 71.232 291.59 68.752 286.534 63.792C281.51 58.832 278.998 52.544 278.998 44.928C278.998 37.312 281.51 31.024 286.534 26.064C291.558 21.072 297.878 18.576 305.494 18.576C313.014 18.576 319.11 20.912 323.782 25.584C328.486 30.256 330.838 36.192 330.838 43.392V48.432H286.534V40.464H317.158C316.902 37.648 315.75 35.312 313.702 33.456C311.654 31.6 308.95 30.672 305.59 30.672C302.006 30.672 298.998 31.968 296.566 34.56C294.166 37.152 292.966 40.624 292.966 44.976C292.966 49.456 294.278 53.04 296.902 55.728C299.558 58.384 302.822 59.712 306.694 59.712C308.582 59.712 310.246 59.456 311.686 58.944C313.158 58.4 314.502 57.648 315.718 56.688C316.934 55.696 318.214 54.208 319.558 52.224L329.59 58.08C327.478 61.472 325.334 64.064 323.158 65.856C320.982 67.616 318.518 68.96 315.766 69.888C313.014 70.784 309.702 71.232 305.83 71.232Z" fill="black"/>
</svg>
